<svg width="480" height="484" viewBox="0 0 480 484" fill="none" xmlns="http://www.w3.org/2000/svg">
<g opacity="0.8">
<g filter="url(#filter0_d_1_291)">
<path d="M46.875 184.875C46.875 136.57 46.875 112.418 56.2757 93.9683C64.5448 77.7393 77.7393 64.5448 93.9683 56.2757C112.418 46.875 136.57 46.875 184.875 46.875H295.125C343.43 46.875 367.582 46.875 386.032 56.2757C402.261 64.5448 415.455 77.7393 423.724 93.9683C433.125 112.418 433.125 136.57 433.125 184.875V295.125C433.125 343.43 433.125 367.582 423.724 386.032C415.455 402.261 402.261 415.455 386.032 423.724C367.582 433.125 343.43 433.125 295.125 433.125H184.875C136.57 433.125 112.418 433.125 93.9683 423.724C77.7393 415.455 64.5448 402.261 56.2757 386.032C46.875 367.582 46.875 343.43 46.875 295.125V184.875Z" fill="url(#paint0_linear_1_291)"/>
</g>
</g>
<g filter="url(#filter1_d_1_291)">
<path d="M108.75 255.227C108.75 244.181 117.704 235.227 128.75 235.227H196.016V220.156C196.016 209.111 204.97 200.156 216.016 200.156H263.281C274.327 200.156 283.281 209.111 283.281 220.156V270.298H350.781C361.827 270.298 370.781 279.252 370.781 290.298V316.562C370.781 327.608 361.827 336.563 350.781 336.563H128.75C117.704 336.563 108.75 327.608 108.75 316.562V255.227Z" fill="url(#paint1_linear_1_291)"/>
<path d="M216.016 200.656H263.281C274.051 200.656 282.781 209.387 282.781 220.156V270.798H350.781C361.551 270.798 370.281 279.528 370.281 290.298V316.562C370.281 327.332 361.551 336.062 350.781 336.062H128.75C117.98 336.062 109.25 327.332 109.25 316.562V255.227C109.25 244.457 117.981 235.727 128.75 235.727H196.516V220.156C196.516 209.555 204.976 200.93 215.513 200.663L216.016 200.656Z" stroke="#EBEBEB"/>
</g>
<mask id="path-4-outside-1_1_291" maskUnits="userSpaceOnUse" x="230" y="215" width="14" height="26" fill="black">
<rect fill="white" x="230" y="215" width="14" height="26"/>
<path d="M242.955 216.727V240H236.636V222.545H236.5L231.409 225.591V220.227L237.136 216.727H242.955Z"/>
</mask>
<path d="M242.955 216.727V240H236.636V222.545H236.5L231.409 225.591V220.227L237.136 216.727H242.955Z" fill="black"/>
<path d="M242.955 216.727H243.955V215.727H242.955V216.727ZM242.955 240V241H243.955V240H242.955ZM236.636 240H235.636V241H236.636V240ZM236.636 222.545H237.636V221.545H236.636V222.545ZM236.5 222.545V221.545H236.224L235.987 221.687L236.5 222.545ZM231.409 225.591H230.409V227.354L231.922 226.449L231.409 225.591ZM231.409 220.227L230.888 219.374L230.409 219.666V220.227H231.409ZM237.136 216.727V215.727H236.855L236.615 215.874L237.136 216.727ZM242.955 216.727H241.955V240H242.955H243.955V216.727H242.955ZM242.955 240V239H236.636V240V241H242.955V240ZM236.636 240H237.636V222.545H236.636H235.636V240H236.636ZM236.636 222.545V221.545H236.5V222.545V223.545H236.636V222.545ZM236.5 222.545L235.987 221.687L230.896 224.733L231.409 225.591L231.922 226.449L237.013 223.404L236.5 222.545ZM231.409 225.591H232.409V220.227H231.409H230.409V225.591H231.409ZM231.409 220.227L231.931 221.081L237.658 217.581L237.136 216.727L236.615 215.874L230.888 219.374L231.409 220.227ZM237.136 216.727V217.727H242.955V216.727V215.727H237.136V216.727Z" fill="#EBEBEB" mask="url(#path-4-outside-1_1_291)"/>
<mask id="path-6-outside-2_1_291" maskUnits="userSpaceOnUse" x="314" y="279" width="22" height="27" fill="black">
<rect fill="white" x="314" y="279" width="22" height="27"/>
<path d="M324.636 304.318C322.803 304.318 321.174 304.004 319.75 303.375C318.333 302.739 317.22 301.864 316.409 300.75C315.598 299.636 315.189 298.356 315.182 296.909H321.545C321.553 297.356 321.689 297.758 321.955 298.114C322.227 298.462 322.598 298.735 323.068 298.932C323.538 299.129 324.076 299.227 324.682 299.227C325.265 299.227 325.78 299.125 326.227 298.92C326.674 298.708 327.023 298.417 327.273 298.045C327.523 297.674 327.644 297.25 327.636 296.773C327.644 296.303 327.5 295.886 327.205 295.523C326.917 295.159 326.511 294.875 325.989 294.67C325.466 294.466 324.864 294.364 324.182 294.364H321.818V290H324.182C324.811 290 325.364 289.898 325.841 289.693C326.326 289.489 326.701 289.205 326.966 288.841C327.239 288.477 327.371 288.061 327.364 287.591C327.371 287.136 327.261 286.735 327.034 286.386C326.807 286.038 326.489 285.765 326.08 285.568C325.678 285.371 325.212 285.273 324.682 285.273C324.106 285.273 323.591 285.375 323.136 285.58C322.689 285.784 322.337 286.068 322.08 286.432C321.822 286.795 321.689 287.212 321.682 287.682H315.636C315.644 286.258 316.034 285 316.807 283.909C317.587 282.818 318.655 281.962 320.011 281.341C321.367 280.72 322.924 280.409 324.682 280.409C326.402 280.409 327.92 280.701 329.239 281.284C330.564 281.867 331.598 282.67 332.341 283.693C333.091 284.708 333.462 285.871 333.455 287.182C333.47 288.485 333.023 289.553 332.114 290.386C331.212 291.22 330.068 291.712 328.682 291.864V292.045C330.561 292.25 331.973 292.826 332.92 293.773C333.867 294.712 334.333 295.894 334.318 297.318C334.326 298.682 333.917 299.89 333.091 300.943C332.273 301.996 331.133 302.822 329.67 303.42C328.216 304.019 326.538 304.318 324.636 304.318Z"/>
</mask>
<path d="M324.636 304.318C322.803 304.318 321.174 304.004 319.75 303.375C318.333 302.739 317.22 301.864 316.409 300.75C315.598 299.636 315.189 298.356 315.182 296.909H321.545C321.553 297.356 321.689 297.758 321.955 298.114C322.227 298.462 322.598 298.735 323.068 298.932C323.538 299.129 324.076 299.227 324.682 299.227C325.265 299.227 325.78 299.125 326.227 298.92C326.674 298.708 327.023 298.417 327.273 298.045C327.523 297.674 327.644 297.25 327.636 296.773C327.644 296.303 327.5 295.886 327.205 295.523C326.917 295.159 326.511 294.875 325.989 294.67C325.466 294.466 324.864 294.364 324.182 294.364H321.818V290H324.182C324.811 290 325.364 289.898 325.841 289.693C326.326 289.489 326.701 289.205 326.966 288.841C327.239 288.477 327.371 288.061 327.364 287.591C327.371 287.136 327.261 286.735 327.034 286.386C326.807 286.038 326.489 285.765 326.08 285.568C325.678 285.371 325.212 285.273 324.682 285.273C324.106 285.273 323.591 285.375 323.136 285.58C322.689 285.784 322.337 286.068 322.08 286.432C321.822 286.795 321.689 287.212 321.682 287.682H315.636C315.644 286.258 316.034 285 316.807 283.909C317.587 282.818 318.655 281.962 320.011 281.341C321.367 280.72 322.924 280.409 324.682 280.409C326.402 280.409 327.92 280.701 329.239 281.284C330.564 281.867 331.598 282.67 332.341 283.693C333.091 284.708 333.462 285.871 333.455 287.182C333.47 288.485 333.023 289.553 332.114 290.386C331.212 291.22 330.068 291.712 328.682 291.864V292.045C330.561 292.25 331.973 292.826 332.92 293.773C333.867 294.712 334.333 295.894 334.318 297.318C334.326 298.682 333.917 299.89 333.091 300.943C332.273 301.996 331.133 302.822 329.67 303.42C328.216 304.019 326.538 304.318 324.636 304.318Z" fill="black"/>
<path d="M319.75 303.375L319.34 304.287L319.346 304.29L319.75 303.375ZM316.409 300.75L317.218 300.162L317.218 300.162L316.409 300.75ZM315.182 296.909V295.909H314.177L314.182 296.914L315.182 296.909ZM321.545 296.909L322.545 296.892L322.529 295.909H321.545V296.909ZM321.955 298.114L321.153 298.711L321.16 298.721L321.167 298.73L321.955 298.114ZM323.068 298.932L322.681 299.854L322.681 299.854L323.068 298.932ZM326.227 298.92L326.643 299.83L326.656 299.824L326.227 298.92ZM327.273 298.045L328.102 298.604L328.102 298.604L327.273 298.045ZM327.636 296.773L326.636 296.757L326.636 296.773L326.636 296.789L327.636 296.773ZM327.205 295.523L326.42 296.143L326.428 296.153L327.205 295.523ZM321.818 294.364H320.818V295.364H321.818V294.364ZM321.818 290V289H320.818V290H321.818ZM325.841 289.693L325.452 288.772L325.447 288.774L325.841 289.693ZM326.966 288.841L326.166 288.241L326.158 288.252L326.966 288.841ZM327.364 287.591L326.364 287.574L326.364 287.591L326.364 287.607L327.364 287.591ZM327.034 286.386L326.196 286.933L326.196 286.933L327.034 286.386ZM326.08 285.568L325.639 286.466L325.646 286.469L326.08 285.568ZM323.136 285.58L322.726 284.668L322.72 284.67L323.136 285.58ZM322.08 286.432L322.896 287.01L322.896 287.01L322.08 286.432ZM321.682 287.682V288.682H322.666L322.682 287.698L321.682 287.682ZM315.636 287.682L314.636 287.676L314.631 288.682H315.636V287.682ZM316.807 283.909L315.993 283.327L315.991 283.331L316.807 283.909ZM320.011 281.341L320.428 282.25L320.428 282.25L320.011 281.341ZM329.239 281.284L328.834 282.199L328.836 282.199L329.239 281.284ZM332.341 283.693L331.532 284.281L331.537 284.287L332.341 283.693ZM333.455 287.182L332.455 287.176L332.455 287.185L332.455 287.193L333.455 287.182ZM332.114 290.386L331.438 289.649L331.435 289.652L332.114 290.386ZM328.682 291.864L328.573 290.87L327.682 290.967V291.864H328.682ZM328.682 292.045H327.682V292.942L328.574 293.04L328.682 292.045ZM332.92 293.773L332.213 294.48L332.216 294.483L332.92 293.773ZM334.318 297.318L333.318 297.308L333.318 297.316L333.318 297.324L334.318 297.318ZM333.091 300.943L332.304 300.326L332.301 300.33L333.091 300.943ZM329.67 303.42L329.292 302.495L329.29 302.496L329.67 303.42ZM324.636 304.318V303.318C322.918 303.318 321.43 303.024 320.154 302.46L319.75 303.375L319.346 304.29C320.918 304.984 322.688 305.318 324.636 305.318V304.318ZM319.75 303.375L320.16 302.463C318.881 301.889 317.913 301.117 317.218 300.162L316.409 300.75L315.601 301.338C316.526 302.61 317.785 303.589 319.34 304.287L319.75 303.375ZM316.409 300.75L317.218 300.162C316.537 299.226 316.188 298.152 316.182 296.904L315.182 296.909L314.182 296.914C314.19 298.56 314.66 300.046 315.601 301.338L316.409 300.75ZM315.182 296.909V297.909H321.545V296.909V295.909H315.182V296.909ZM321.545 296.909L320.546 296.926C320.557 297.581 320.761 298.186 321.153 298.711L321.955 298.114L322.757 297.516C322.617 297.33 322.549 297.131 322.545 296.892L321.545 296.909ZM321.955 298.114L321.167 298.73C321.56 299.232 322.078 299.601 322.681 299.854L323.068 298.932L323.455 298.01C323.119 297.869 322.895 297.692 322.742 297.497L321.955 298.114ZM323.068 298.932L322.681 299.854C323.295 300.111 323.968 300.227 324.682 300.227V299.227V298.227C324.184 298.227 323.781 298.146 323.455 298.01L323.068 298.932ZM324.682 299.227V300.227C325.382 300.227 326.044 300.104 326.643 299.83L326.227 298.92L325.811 298.011C325.517 298.146 325.148 298.227 324.682 298.227V299.227ZM326.227 298.92L326.656 299.824C327.247 299.543 327.742 299.139 328.102 298.604L327.273 298.045L326.443 297.487C326.304 297.694 326.101 297.873 325.799 298.017L326.227 298.92ZM327.273 298.045L328.102 298.604C328.474 298.052 328.647 297.424 328.636 296.757L327.636 296.773L326.636 296.789C326.641 297.076 326.571 297.297 326.443 297.487L327.273 298.045ZM327.636 296.773L328.636 296.789C328.648 296.085 328.425 295.439 327.981 294.892L327.205 295.523L326.428 296.153C326.575 296.334 326.64 296.521 326.636 296.757L327.636 296.773ZM327.205 295.523L327.989 294.902C327.57 294.373 327.006 293.995 326.353 293.739L325.989 294.67L325.624 295.602C326.017 295.755 326.264 295.945 326.42 296.143L327.205 295.523ZM325.989 294.67L326.353 293.739C325.692 293.481 324.962 293.364 324.182 293.364V294.364V295.364C324.765 295.364 325.24 295.451 325.624 295.602L325.989 294.67ZM324.182 294.364V293.364H321.818V294.364V295.364H324.182V294.364ZM321.818 294.364H322.818V290H321.818H320.818V294.364H321.818ZM321.818 290V291H324.182V290V289H321.818V290ZM324.182 290V291C324.918 291 325.61 290.88 326.235 290.612L325.841 289.693L325.447 288.774C325.118 288.915 324.703 289 324.182 289V290ZM325.841 289.693L326.23 290.615C326.853 290.352 327.385 289.964 327.774 289.43L326.966 288.841L326.158 288.252C326.017 288.445 325.798 288.626 325.452 288.772L325.841 289.693ZM326.966 288.841L327.766 289.441C328.176 288.893 328.375 288.258 328.364 287.575L327.364 287.591L326.364 287.607C326.368 287.863 326.301 288.061 326.166 288.241L326.966 288.841ZM327.364 287.591L328.363 287.608C328.374 286.973 328.218 286.371 327.872 285.84L327.034 286.386L326.196 286.933C326.305 287.098 326.368 287.3 326.364 287.574L327.364 287.591ZM327.034 286.386L327.872 285.84C327.536 285.325 327.071 284.936 326.513 284.667L326.08 285.568L325.646 286.469C325.906 286.594 326.078 286.751 326.196 286.933L327.034 286.386ZM326.08 285.568L326.52 284.67C325.958 284.395 325.337 284.273 324.682 284.273V285.273V286.273C325.088 286.273 325.398 286.348 325.639 286.466L326.08 285.568ZM324.682 285.273V284.273C323.986 284.273 323.328 284.397 322.726 284.668L323.136 285.58L323.547 286.491C323.854 286.353 324.226 286.273 324.682 286.273V285.273ZM323.136 285.58L322.72 284.67C322.13 284.94 321.633 285.332 321.264 285.854L322.08 286.432L322.896 287.01C323.041 286.804 323.249 286.628 323.552 286.489L323.136 285.58ZM322.08 286.432L321.264 285.854C320.883 286.391 320.693 287.006 320.682 287.666L321.682 287.682L322.682 287.698C322.686 287.418 322.761 287.2 322.896 287.01L322.08 286.432ZM321.682 287.682V286.682H315.636V287.682V288.682H321.682V287.682ZM315.636 287.682L316.636 287.687C316.643 286.454 316.977 285.399 317.623 284.487L316.807 283.909L315.991 283.331C315.091 284.601 314.645 286.061 314.636 287.676L315.636 287.682ZM316.807 283.909L317.62 284.491C318.288 283.557 319.212 282.807 320.428 282.25L320.011 281.341L319.595 280.432C318.098 281.117 316.886 282.079 315.993 283.327L316.807 283.909ZM320.011 281.341L320.428 282.25C321.632 281.698 323.043 281.409 324.682 281.409V280.409V279.409C322.806 279.409 321.103 279.741 319.595 280.432L320.011 281.341ZM324.682 280.409V281.409C326.289 281.409 327.665 281.681 328.834 282.199L329.239 281.284L329.643 280.37C328.176 279.72 326.514 279.409 324.682 279.409V280.409ZM329.239 281.284L328.836 282.199C330.024 282.722 330.908 283.421 331.532 284.281L332.341 283.693L333.15 283.106C332.289 281.92 331.105 281.013 329.641 280.369L329.239 281.284ZM332.341 283.693L331.537 284.287C332.153 285.122 332.461 286.072 332.455 287.176L333.455 287.182L334.455 287.188C334.463 285.67 334.029 284.295 333.145 283.099L332.341 283.693ZM333.455 287.182L332.455 287.193C332.467 288.23 332.124 289.02 331.438 289.649L332.114 290.386L332.789 291.124C333.921 290.086 334.473 288.739 334.454 287.17L333.455 287.182ZM332.114 290.386L331.435 289.652C330.712 290.321 329.777 290.738 328.573 290.87L328.682 291.864L328.79 292.858C330.36 292.686 331.713 292.119 332.792 291.121L332.114 290.386ZM328.682 291.864H327.682V292.045H328.682H329.682V291.864H328.682ZM328.682 292.045L328.574 293.04C330.317 293.229 331.482 293.749 332.213 294.48L332.92 293.773L333.628 293.066C332.465 291.903 330.804 291.271 328.79 291.051L328.682 292.045ZM332.92 293.773L332.216 294.483C332.957 295.218 333.331 296.133 333.318 297.308L334.318 297.318L335.318 297.329C335.336 295.655 334.778 294.206 333.625 293.063L332.92 293.773ZM334.318 297.318L333.318 297.324C333.325 298.466 332.988 299.454 332.304 300.326L333.091 300.943L333.878 301.56C334.846 300.326 335.327 298.897 335.318 297.313L334.318 297.318ZM333.091 300.943L332.301 300.33C331.609 301.221 330.622 301.95 329.292 302.495L329.67 303.42L330.049 304.346C331.643 303.693 332.937 302.771 333.881 301.557L333.091 300.943ZM329.67 303.42L329.29 302.496C327.979 303.035 326.434 303.318 324.636 303.318V304.318V305.318C326.642 305.318 328.453 305.003 330.051 304.345L329.67 303.42Z" fill="#EBEBEB" mask="url(#path-6-outside-2_1_291)"/>
<mask id="path-8-outside-3_1_291" maskUnits="userSpaceOnUse" x="142" y="245" width="21" height="26" fill="black">
<rect fill="white" x="142" y="245" width="21" height="26"/>
<path d="M143.545 270V265.455L152.227 258.273C152.803 257.795 153.295 257.348 153.705 256.932C154.121 256.508 154.439 256.072 154.659 255.625C154.886 255.178 155 254.682 155 254.136C155 253.538 154.871 253.027 154.614 252.602C154.364 252.178 154.015 251.852 153.568 251.625C153.121 251.39 152.606 251.273 152.023 251.273C151.439 251.273 150.924 251.39 150.477 251.625C150.038 251.86 149.697 252.205 149.455 252.659C149.212 253.114 149.091 253.667 149.091 254.318H143.091C143.091 252.682 143.458 251.273 144.193 250.091C144.928 248.909 145.966 248 147.307 247.364C148.648 246.727 150.22 246.409 152.023 246.409C153.886 246.409 155.5 246.708 156.864 247.307C158.235 247.898 159.292 248.731 160.034 249.807C160.784 250.883 161.159 252.144 161.159 253.591C161.159 254.485 160.973 255.375 160.602 256.261C160.231 257.14 159.564 258.114 158.602 259.182C157.64 260.25 156.273 261.523 154.5 263L152.318 264.818V264.955H161.409V270H143.545Z"/>
</mask>
<path d="M143.545 270V265.455L152.227 258.273C152.803 257.795 153.295 257.348 153.705 256.932C154.121 256.508 154.439 256.072 154.659 255.625C154.886 255.178 155 254.682 155 254.136C155 253.538 154.871 253.027 154.614 252.602C154.364 252.178 154.015 251.852 153.568 251.625C153.121 251.39 152.606 251.273 152.023 251.273C151.439 251.273 150.924 251.39 150.477 251.625C150.038 251.86 149.697 252.205 149.455 252.659C149.212 253.114 149.091 253.667 149.091 254.318H143.091C143.091 252.682 143.458 251.273 144.193 250.091C144.928 248.909 145.966 248 147.307 247.364C148.648 246.727 150.22 246.409 152.023 246.409C153.886 246.409 155.5 246.708 156.864 247.307C158.235 247.898 159.292 248.731 160.034 249.807C160.784 250.883 161.159 252.144 161.159 253.591C161.159 254.485 160.973 255.375 160.602 256.261C160.231 257.14 159.564 258.114 158.602 259.182C157.64 260.25 156.273 261.523 154.5 263L152.318 264.818V264.955H161.409V270H143.545Z" fill="black"/>
<path d="M143.545 270H142.545V271H143.545V270ZM143.545 265.455L142.908 264.684L142.545 264.984V265.455H143.545ZM152.227 258.273L152.865 259.043L152.865 259.043L152.227 258.273ZM153.705 256.932L152.991 256.231L152.991 256.231L153.705 256.932ZM154.659 255.625L153.768 255.172L153.762 255.184L154.659 255.625ZM154.614 252.602L153.752 253.11L153.759 253.121L154.614 252.602ZM153.568 251.625L153.103 252.51L153.115 252.516L153.568 251.625ZM150.477 251.625L150.012 250.74L150.006 250.743L150.477 251.625ZM149.455 252.659L148.572 252.189L148.572 252.189L149.455 252.659ZM149.091 254.318V255.318H150.091V254.318H149.091ZM143.091 254.318H142.091V255.318H143.091V254.318ZM144.193 250.091L143.344 249.563L143.344 249.563L144.193 250.091ZM147.307 247.364L147.736 248.267L147.736 248.267L147.307 247.364ZM156.864 247.307L156.462 248.223L156.468 248.225L156.864 247.307ZM160.034 249.807L159.211 250.375L159.214 250.379L160.034 249.807ZM160.602 256.261L161.523 256.65L161.525 256.648L160.602 256.261ZM158.602 259.182L159.345 259.851L159.345 259.851L158.602 259.182ZM154.5 263L155.14 263.768L154.5 263ZM152.318 264.818L151.678 264.05L151.318 264.35V264.818H152.318ZM152.318 264.955H151.318V265.955H152.318V264.955ZM161.409 264.955H162.409V263.955H161.409V264.955ZM161.409 270V271H162.409V270H161.409ZM143.545 270H144.545V265.455H143.545H142.545V270H143.545ZM143.545 265.455L144.183 266.225L152.865 259.043L152.227 258.273L151.59 257.502L142.908 264.684L143.545 265.455ZM152.227 258.273L152.865 259.043C153.461 258.549 153.98 258.079 154.418 257.632L153.705 256.932L152.991 256.231C152.611 256.618 152.145 257.042 151.589 257.503L152.227 258.273ZM153.705 256.932L154.418 257.633C154.895 257.146 155.282 256.625 155.557 256.066L154.659 255.625L153.762 255.184C153.597 255.519 153.347 255.869 152.991 256.231L153.705 256.932ZM154.659 255.625L155.55 256.078C155.855 255.479 156 254.825 156 254.136H155H154C154 254.538 153.917 254.877 153.768 255.172L154.659 255.625ZM155 254.136H156C156 253.393 155.839 252.693 155.468 252.083L154.614 252.602L153.759 253.121C153.904 253.36 154 253.683 154 254.136H155ZM154.614 252.602L155.475 252.095C155.127 251.503 154.635 251.046 154.021 250.734L153.568 251.625L153.115 252.516C153.395 252.659 153.601 252.853 153.752 253.11L154.614 252.602ZM153.568 251.625L154.033 250.74C153.422 250.419 152.743 250.273 152.023 250.273V251.273V252.273C152.469 252.273 152.82 252.362 153.103 252.51L153.568 251.625ZM152.023 251.273V250.273C151.303 250.273 150.623 250.419 150.012 250.74L150.477 251.625L150.942 252.51C151.225 252.362 151.576 252.273 152.023 252.273V251.273ZM150.477 251.625L150.006 250.743C149.386 251.075 148.904 251.565 148.572 252.189L149.455 252.659L150.337 253.13C150.489 252.844 150.69 252.645 150.949 252.507L150.477 251.625ZM149.455 252.659L148.572 252.189C148.235 252.821 148.091 253.545 148.091 254.318H149.091H150.091C150.091 253.788 150.19 253.406 150.337 253.13L149.455 252.659ZM149.091 254.318V253.318H143.091V254.318V255.318H149.091V254.318ZM143.091 254.318H144.091C144.091 252.835 144.422 251.616 145.042 250.619L144.193 250.091L143.344 249.563C142.494 250.929 142.091 252.528 142.091 254.318H143.091ZM144.193 250.091L145.042 250.619C145.669 249.611 146.556 248.827 147.736 248.267L147.307 247.364L146.878 246.46C145.376 247.173 144.187 248.207 143.344 249.563L144.193 250.091ZM147.307 247.364L147.736 248.267C148.917 247.706 150.337 247.409 152.023 247.409V246.409V245.409C150.103 245.409 148.379 245.748 146.878 246.46L147.307 247.364ZM152.023 246.409V247.409C153.782 247.409 155.252 247.692 156.462 248.223L156.864 247.307L157.266 246.391C155.748 245.725 153.991 245.409 152.023 245.409V246.409ZM156.864 247.307L156.468 248.225C157.692 248.753 158.59 249.475 159.211 250.375L160.034 249.807L160.857 249.239C159.993 247.987 158.778 247.043 157.259 246.388L156.864 247.307ZM160.034 249.807L159.214 250.379C159.835 251.269 160.159 252.326 160.159 253.591H161.159H162.159C162.159 251.962 161.733 250.496 160.854 249.235L160.034 249.807ZM161.159 253.591H160.159C160.159 254.343 160.004 255.102 159.68 255.875L160.602 256.261L161.525 256.648C161.943 255.648 162.159 254.627 162.159 253.591H161.159ZM160.602 256.261L159.681 255.872C159.369 256.61 158.781 257.49 157.859 258.513L158.602 259.182L159.345 259.851C160.348 258.738 161.093 257.67 161.523 256.65L160.602 256.261ZM158.602 259.182L157.859 258.513C156.942 259.531 155.615 260.769 153.86 262.232L154.5 263L155.14 263.768C156.93 262.276 158.338 260.969 159.345 259.851L158.602 259.182ZM154.5 263L153.86 262.232L151.678 264.05L152.318 264.818L152.958 265.586L155.14 263.768L154.5 263ZM152.318 264.818H151.318V264.955H152.318H153.318V264.818H152.318ZM152.318 264.955V265.955H161.409V264.955V263.955H152.318V264.955ZM161.409 264.955H160.409V270H161.409H162.409V264.955H161.409ZM161.409 270V269H143.545V270V271H161.409V270Z" fill="#EBEBEB" mask="url(#path-8-outside-3_1_291)"/>
<g filter="url(#filter2_d_1_291)">
<path d="M232.995 147.728C233.081 146.538 234.161 145.604 235.481 145.61L235.683 145.619L235.918 145.647C236.506 145.744 237.036 146.029 237.416 146.445L247.267 157.249L247.819 157.854L248.115 157.135L254.699 141.085C255.185 139.899 256.644 139.304 257.952 139.778C258.66 140.035 259.198 140.566 259.429 141.215L267.568 164.014C268.251 165.928 267.141 168.013 265.008 168.632L224.935 180.259C222.802 180.878 220.551 179.768 219.868 177.854L211.729 155.055C211.308 153.875 211.989 152.569 213.332 152.179C214.062 151.968 214.855 152.076 215.487 152.461L231.222 162.036L231.927 162.465L231.984 161.682L232.995 147.728Z" fill="url(#paint2_linear_1_291)" stroke="black"/>
</g>
<defs>
<filter id="filter0_d_1_291" x="6.875" y="16.875" width="466.25" height="466.25" filterUnits="userSpaceOnUse" color-interpolation-filters="sRGB">
<feFlood flood-opacity="0" result="BackgroundImageFix"/>
<feColorMatrix in="SourceAlpha" type="matrix" values="0 0 0 0 0 0 0 0 0 0 0 0 0 0 0 0 0 0 127 0" result="hardAlpha"/>
<feOffset dy="10"/>
<feGaussianBlur stdDeviation="20"/>
<feComposite in2="hardAlpha" operator="out"/>
<feColorMatrix type="matrix" values="0 0 0 0 0 0 0 0 0 0 0 0 0 0 0 0 0 0 0.9 0"/>
<feBlend mode="normal" in2="BackgroundImageFix" result="effect1_dropShadow_1_291"/>
<feBlend mode="normal" in="SourceGraphic" in2="effect1_dropShadow_1_291" result="shape"/>
</filter>
<filter id="filter1_d_1_291" x="102.75" y="198.156" width="274.031" height="148.406" filterUnits="userSpaceOnUse" color-interpolation-filters="sRGB">
<feFlood flood-opacity="0" result="BackgroundImageFix"/>
<feColorMatrix in="SourceAlpha" type="matrix" values="0 0 0 0 0 0 0 0 0 0 0 0 0 0 0 0 0 0 127 0" result="hardAlpha"/>
<feOffset dy="4"/>
<feGaussianBlur stdDeviation="3"/>
<feComposite in2="hardAlpha" operator="out"/>
<feColorMatrix type="matrix" values="0 0 0 0 0 0 0 0 0 0 0 0 0 0 0 0 0 0 0.6 0"/>
<feBlend mode="normal" in2="BackgroundImageFix" result="effect1_dropShadow_1_291"/>
<feBlend mode="normal" in="SourceGraphic" in2="effect1_dropShadow_1_291" result="shape"/>
</filter>
<filter id="filter2_d_1_291" x="199.095" y="131.123" width="81.1834" height="65.7992" filterUnits="userSpaceOnUse" color-interpolation-filters="sRGB">
<feFlood flood-opacity="0" result="BackgroundImageFix"/>
<feColorMatrix in="SourceAlpha" type="matrix" values="0 0 0 0 0 0 0 0 0 0 0 0 0 0 0 0 0 0 127 0" result="hardAlpha"/>
<feOffset dy="4"/>
<feGaussianBlur stdDeviation="6"/>
<feComposite in2="hardAlpha" operator="out"/>
<feColorMatrix type="matrix" values="0 0 0 0 0 0 0 0 0 0 0 0 0 0 0 0 0 0 0.65 0"/>
<feBlend mode="normal" in2="BackgroundImageFix" result="effect1_dropShadow_1_291"/>
<feBlend mode="normal" in="SourceGraphic" in2="effect1_dropShadow_1_291" result="shape"/>
</filter>
<linearGradient id="paint0_linear_1_291" x1="235.078" y1="46.875" x2="240" y2="433.125" gradientUnits="userSpaceOnUse">
<stop stop-color="#CFCFCF"/>
<stop offset="1" stop-color="white"/>
</linearGradient>
<linearGradient id="paint1_linear_1_291" x1="239.766" y1="200.156" x2="239.766" y2="366.137" gradientUnits="userSpaceOnUse">
<stop stop-color="#383838"/>
<stop offset="0.249103" stop-color="#525252"/>
<stop offset="0.498205" stop-color="#6B6B6B"/>
</linearGradient>
<linearGradient id="paint2_linear_1_291" x1="2643.22" y1="-553.629" x2="3519.57" y2="2466.73" gradientUnits="userSpaceOnUse">
<stop stop-color="#00AA00"/>
<stop offset="1" stop-color="#008800"/>
</linearGradient>
</defs>
</svg>
